<mxfile host="65bd71144e">
    <diagram id="80PhMAVEFQOqBVCfVgaP" name="Page-1">
        <mxGraphModel dx="990" dy="1675" grid="1" gridSize="10" guides="1" tooltips="1" connect="1" arrows="1" fold="1" page="1" pageScale="1" pageWidth="850" pageHeight="1100" math="0" shadow="0">
            <root>
                <mxCell id="0"/>
                <mxCell id="1" parent="0"/>
                <mxCell id="m5qvKxgTyqt-yR9O_Ca_-6" value="" style="rounded=0;whiteSpace=wrap;html=1;fillColor=#eeeeee;strokeColor=#36393d;" vertex="1" parent="1">
                    <mxGeometry x="120" y="610" width="640" height="430" as="geometry"/>
                </mxCell>
                <mxCell id="m5qvKxgTyqt-yR9O_Ca_-8" value="" style="rounded=0;whiteSpace=wrap;html=1;strokeColor=#36393d;fillColor=#B3B3B3;" vertex="1" parent="1">
                    <mxGeometry x="280" y="710" width="290" height="220" as="geometry"/>
                </mxCell>
                <mxCell id="m5qvKxgTyqt-yR9O_Ca_-7" value="" style="rounded=0;whiteSpace=wrap;html=1;fillColor=#cdeb8b;strokeColor=#36393d;" vertex="1" parent="1">
                    <mxGeometry x="288" y="720" width="275" height="200" as="geometry"/>
                </mxCell>
                <mxCell id="m5qvKxgTyqt-yR9O_Ca_-18" value="" style="shape=image;html=1;verticalAlign=top;verticalLabelPosition=bottom;labelBackgroundColor=#ffffff;imageAspect=0;aspect=fixed;image=https://cdn4.iconfinder.com/data/icons/free-retina-icon-set/60/Dog.png" vertex="1" parent="1">
                    <mxGeometry x="303" y="860" width="50" height="50" as="geometry"/>
                </mxCell>
                <mxCell id="m5qvKxgTyqt-yR9O_Ca_-19" value="" style="shape=image;html=1;verticalAlign=top;verticalLabelPosition=bottom;labelBackgroundColor=#ffffff;imageAspect=0;aspect=fixed;image=https://cdn3.iconfinder.com/data/icons/materia-halloween-free/24/039_026_cat_black_witch_halloween-128.png" vertex="1" parent="1">
                    <mxGeometry x="400.5" y="857" width="50" height="50" as="geometry"/>
                </mxCell>
                <mxCell id="mGnCdX0i4CdFxTyxRNxq-11" value="" style="shape=image;html=1;verticalAlign=top;verticalLabelPosition=bottom;labelBackgroundColor=#ffffff;imageAspect=0;aspect=fixed;image=https://cdn4.iconfinder.com/data/icons/zoo-line-welcome-to-zootopia/512/dolphin-128.png" vertex="1" parent="1">
                    <mxGeometry x="493.5" y="851" width="56" height="56" as="geometry"/>
                </mxCell>
                <mxCell id="m5qvKxgTyqt-yR9O_Ca_-32" value="" style="rounded=0;whiteSpace=wrap;html=1;fillColor=#eeeeee;strokeColor=#36393d;" vertex="1" parent="1">
                    <mxGeometry x="120" y="80" width="640" height="430" as="geometry"/>
                </mxCell>
                <mxCell id="m5qvKxgTyqt-yR9O_Ca_-33" value="" style="rounded=0;whiteSpace=wrap;html=1;strokeColor=#36393d;fillColor=#B3B3B3;" vertex="1" parent="1">
                    <mxGeometry x="280" y="180" width="290" height="220" as="geometry"/>
                </mxCell>
                <mxCell id="m5qvKxgTyqt-yR9O_Ca_-34" value="" style="rounded=0;whiteSpace=wrap;html=1;fillColor=#cdeb8b;strokeColor=#36393d;" vertex="1" parent="1">
                    <mxGeometry x="288" y="190" width="275" height="200" as="geometry"/>
                </mxCell>
                <mxCell id="m5qvKxgTyqt-yR9O_Ca_-35" value="" style="ellipse;whiteSpace=wrap;html=1;aspect=fixed;fillColor=#e51400;strokeColor=#B20000;fontColor=#ffffff;" vertex="1" parent="1">
                    <mxGeometry x="280" y="420" width="80" height="80" as="geometry"/>
                </mxCell>
                <mxCell id="m5qvKxgTyqt-yR9O_Ca_-36" value="" style="ellipse;whiteSpace=wrap;html=1;aspect=fixed;fillColor=#e51400;strokeColor=#B20000;fontColor=#ffffff;" vertex="1" parent="1">
                    <mxGeometry x="380" y="420" width="80" height="80" as="geometry"/>
                </mxCell>
                <mxCell id="m5qvKxgTyqt-yR9O_Ca_-37" value="" style="ellipse;whiteSpace=wrap;html=1;aspect=fixed;fillColor=#e51400;strokeColor=#B20000;fontColor=#ffffff;" vertex="1" parent="1">
                    <mxGeometry x="490" y="420" width="80" height="80" as="geometry"/>
                </mxCell>
                <mxCell id="m5qvKxgTyqt-yR9O_Ca_-38" value="" style="ellipse;whiteSpace=wrap;html=1;aspect=fixed;fillColor=#e51400;strokeColor=#B20000;fontColor=#ffffff;" vertex="1" parent="1">
                    <mxGeometry x="273" y="410" width="80" height="80" as="geometry"/>
                </mxCell>
                <mxCell id="m5qvKxgTyqt-yR9O_Ca_-39" value="" style="ellipse;whiteSpace=wrap;html=1;aspect=fixed;fillColor=#e51400;strokeColor=#B20000;fontColor=#ffffff;" vertex="1" parent="1">
                    <mxGeometry x="495" y="410" width="80" height="80" as="geometry"/>
                </mxCell>
                <mxCell id="m5qvKxgTyqt-yR9O_Ca_-43" value="" style="rounded=0;whiteSpace=wrap;html=1;fillColor=#eeeeee;strokeColor=#36393d;" vertex="1" parent="1">
                    <mxGeometry x="120" y="-470" width="640" height="430" as="geometry"/>
                </mxCell>
                <mxCell id="m5qvKxgTyqt-yR9O_Ca_-44" value="" style="rounded=0;whiteSpace=wrap;html=1;strokeColor=#36393d;fillColor=#B3B3B3;" vertex="1" parent="1">
                    <mxGeometry x="280" y="-370" width="290" height="220" as="geometry"/>
                </mxCell>
                <mxCell id="m5qvKxgTyqt-yR9O_Ca_-45" value="" style="rounded=0;whiteSpace=wrap;html=1;fillColor=#cdeb8b;strokeColor=#36393d;" vertex="1" parent="1">
                    <mxGeometry x="288" y="-360" width="275" height="200" as="geometry"/>
                </mxCell>
                <mxCell id="m5qvKxgTyqt-yR9O_Ca_-51" value="&lt;b&gt;&lt;u&gt;&lt;font style=&quot;font-size: 18px&quot;&gt;Screen 2&lt;/font&gt;&lt;/u&gt;&lt;/b&gt;" style="text;html=1;strokeColor=none;fillColor=none;align=center;verticalAlign=middle;whiteSpace=wrap;rounded=0;fontColor=#000000;" vertex="1" parent="1">
                    <mxGeometry x="365" y="650" width="110" height="40" as="geometry"/>
                </mxCell>
                <mxCell id="m5qvKxgTyqt-yR9O_Ca_-52" value="&lt;b&gt;&lt;u&gt;&lt;font style=&quot;font-size: 18px&quot;&gt;Screen 1&lt;/font&gt;&lt;/u&gt;&lt;/b&gt;" style="text;html=1;strokeColor=none;fillColor=none;align=center;verticalAlign=middle;whiteSpace=wrap;rounded=0;fontColor=#000000;" vertex="1" parent="1">
                    <mxGeometry x="372.5" y="110" width="110" height="40" as="geometry"/>
                </mxCell>
                <mxCell id="m5qvKxgTyqt-yR9O_Ca_-53" value="&lt;font style=&quot;font-size: 34px&quot;&gt;CyberPet&lt;/font&gt;" style="text;html=1;strokeColor=none;fillColor=none;align=center;verticalAlign=middle;whiteSpace=wrap;rounded=0;fontColor=#000000;" vertex="1" parent="1">
                    <mxGeometry x="343" y="190" width="165" height="50" as="geometry"/>
                </mxCell>
                <mxCell id="m5qvKxgTyqt-yR9O_Ca_-54" value="" style="ellipse;whiteSpace=wrap;html=1;aspect=fixed;fillColor=#e51400;strokeColor=#B20000;fontColor=#ffffff;" vertex="1" parent="1">
                    <mxGeometry x="380" y="410" width="80" height="80" as="geometry"/>
                </mxCell>
                <mxCell id="mGnCdX0i4CdFxTyxRNxq-13" value="New game" style="text;html=1;strokeColor=none;fillColor=none;align=center;verticalAlign=middle;whiteSpace=wrap;rounded=0;fontStyle=1;fontSize=15;labelBorderColor=#000000;" vertex="1" parent="1">
                    <mxGeometry x="360" y="340" width="130" height="40" as="geometry"/>
                </mxCell>
                <mxCell id="m5qvKxgTyqt-yR9O_Ca_-55" value="" style="ellipse;whiteSpace=wrap;html=1;aspect=fixed;fillColor=#e51400;strokeColor=#B20000;fontColor=#ffffff;" vertex="1" parent="1">
                    <mxGeometry x="280" y="950" width="80" height="80" as="geometry"/>
                </mxCell>
                <mxCell id="m5qvKxgTyqt-yR9O_Ca_-56" value="" style="ellipse;whiteSpace=wrap;html=1;aspect=fixed;fillColor=#e51400;strokeColor=#B20000;fontColor=#ffffff;" vertex="1" parent="1">
                    <mxGeometry x="380" y="950" width="80" height="80" as="geometry"/>
                </mxCell>
                <mxCell id="m5qvKxgTyqt-yR9O_Ca_-57" value="" style="ellipse;whiteSpace=wrap;html=1;aspect=fixed;fillColor=#e51400;strokeColor=#B20000;fontColor=#ffffff;" vertex="1" parent="1">
                    <mxGeometry x="490" y="950" width="80" height="80" as="geometry"/>
                </mxCell>
                <mxCell id="m5qvKxgTyqt-yR9O_Ca_-58" value="" style="ellipse;whiteSpace=wrap;html=1;aspect=fixed;fillColor=#e51400;strokeColor=#B20000;fontColor=#ffffff;" vertex="1" parent="1">
                    <mxGeometry x="273" y="940" width="80" height="80" as="geometry"/>
                </mxCell>
                <mxCell id="m5qvKxgTyqt-yR9O_Ca_-59" value="" style="ellipse;whiteSpace=wrap;html=1;aspect=fixed;fillColor=#e51400;strokeColor=#B20000;fontColor=#ffffff;" vertex="1" parent="1">
                    <mxGeometry x="495" y="940" width="80" height="80" as="geometry"/>
                </mxCell>
                <mxCell id="m5qvKxgTyqt-yR9O_Ca_-60" value="" style="ellipse;whiteSpace=wrap;html=1;aspect=fixed;fillColor=#e51400;strokeColor=#B20000;fontColor=#ffffff;" vertex="1" parent="1">
                    <mxGeometry x="380" y="940" width="80" height="80" as="geometry"/>
                </mxCell>
                <mxCell id="mGnCdX0i4CdFxTyxRNxq-14" value="" style="shape=image;html=1;verticalAlign=top;verticalLabelPosition=bottom;labelBackgroundColor=#ffffff;imageAspect=0;aspect=fixed;image=https://cdn4.iconfinder.com/data/icons/zoo-line-welcome-to-zootopia/512/dolphin-128.png" vertex="1" parent="1">
                    <mxGeometry x="490" y="270" width="56" height="56" as="geometry"/>
                </mxCell>
                <mxCell id="m5qvKxgTyqt-yR9O_Ca_-61" value="" style="ellipse;whiteSpace=wrap;html=1;aspect=fixed;fillColor=#e51400;strokeColor=#B20000;fontColor=#ffffff;" vertex="1" parent="1">
                    <mxGeometry x="283.5" y="-130" width="80" height="80" as="geometry"/>
                </mxCell>
                <mxCell id="m5qvKxgTyqt-yR9O_Ca_-62" value="" style="ellipse;whiteSpace=wrap;html=1;aspect=fixed;fillColor=#e51400;strokeColor=#B20000;fontColor=#ffffff;" vertex="1" parent="1">
                    <mxGeometry x="383.5" y="-130" width="80" height="80" as="geometry"/>
                </mxCell>
                <mxCell id="m5qvKxgTyqt-yR9O_Ca_-63" value="" style="ellipse;whiteSpace=wrap;html=1;aspect=fixed;fillColor=#e51400;strokeColor=#B20000;fontColor=#ffffff;" vertex="1" parent="1">
                    <mxGeometry x="493.5" y="-130" width="80" height="80" as="geometry"/>
                </mxCell>
                <mxCell id="m5qvKxgTyqt-yR9O_Ca_-64" value="" style="ellipse;whiteSpace=wrap;html=1;aspect=fixed;fillColor=#e51400;strokeColor=#B20000;fontColor=#ffffff;" vertex="1" parent="1">
                    <mxGeometry x="276.5" y="-140" width="80" height="80" as="geometry"/>
                </mxCell>
                <mxCell id="m5qvKxgTyqt-yR9O_Ca_-65" value="" style="ellipse;whiteSpace=wrap;html=1;aspect=fixed;fillColor=#e51400;strokeColor=#B20000;fontColor=#ffffff;" vertex="1" parent="1">
                    <mxGeometry x="498.5" y="-140" width="80" height="80" as="geometry"/>
                </mxCell>
                <mxCell id="m5qvKxgTyqt-yR9O_Ca_-66" value="" style="ellipse;whiteSpace=wrap;html=1;aspect=fixed;fillColor=#e51400;strokeColor=#B20000;fontColor=#ffffff;" vertex="1" parent="1">
                    <mxGeometry x="383.5" y="-140" width="80" height="80" as="geometry"/>
                </mxCell>
                <mxCell id="mGnCdX0i4CdFxTyxRNxq-19" value="" style="shape=image;html=1;verticalAlign=top;verticalLabelPosition=bottom;labelBackgroundColor=#ffffff;imageAspect=0;aspect=fixed;image=https://cdn3.iconfinder.com/data/icons/materia-halloween-free/24/039_026_cat_black_witch_halloween-128.png" vertex="1" parent="1">
                    <mxGeometry x="402.5" y="273" width="50" height="50" as="geometry"/>
                </mxCell>
                <mxCell id="m5qvKxgTyqt-yR9O_Ca_-67" value="" style="shape=image;html=1;verticalAlign=top;verticalLabelPosition=bottom;labelBackgroundColor=#ffffff;imageAspect=0;aspect=fixed;image=https://cdn4.iconfinder.com/data/icons/free-retina-icon-set/60/Dog.png" vertex="1" parent="1">
                    <mxGeometry x="303" y="276" width="50" height="50" as="geometry"/>
                </mxCell>
                <mxCell id="mGnCdX0i4CdFxTyxRNxq-20" value="Choose a pet" style="text;html=1;strokeColor=none;fillColor=none;align=center;verticalAlign=middle;whiteSpace=wrap;rounded=0;" vertex="1" parent="1">
                    <mxGeometry x="310" y="770" width="230" height="60" as="geometry"/>
                </mxCell>
                <mxCell id="m5qvKxgTyqt-yR9O_Ca_-68" value="" style="rounded=0;whiteSpace=wrap;html=1;fillColor=#eeeeee;strokeColor=#36393d;" vertex="1" parent="1">
                    <mxGeometry x="120" y="1080" width="640" height="430" as="geometry"/>
                </mxCell>
                <mxCell id="m5qvKxgTyqt-yR9O_Ca_-69" value="" style="rounded=0;whiteSpace=wrap;html=1;strokeColor=#36393d;fillColor=#B3B3B3;" vertex="1" parent="1">
                    <mxGeometry x="280" y="1180" width="290" height="220" as="geometry"/>
                </mxCell>
                <mxCell id="m5qvKxgTyqt-yR9O_Ca_-70" value="" style="rounded=0;whiteSpace=wrap;html=1;fillColor=#cdeb8b;strokeColor=#36393d;" vertex="1" parent="1">
                    <mxGeometry x="288" y="1190" width="275" height="200" as="geometry"/>
                </mxCell>
                <mxCell id="m5qvKxgTyqt-yR9O_Ca_-71" value="" style="ellipse;whiteSpace=wrap;html=1;aspect=fixed;fillColor=#e51400;strokeColor=#B20000;fontColor=#ffffff;" vertex="1" parent="1">
                    <mxGeometry x="283.5" y="1420" width="80" height="80" as="geometry"/>
                </mxCell>
                <mxCell id="m5qvKxgTyqt-yR9O_Ca_-72" value="" style="ellipse;whiteSpace=wrap;html=1;aspect=fixed;fillColor=#e51400;strokeColor=#B20000;fontColor=#ffffff;" vertex="1" parent="1">
                    <mxGeometry x="383.5" y="1420" width="80" height="80" as="geometry"/>
                </mxCell>
                <mxCell id="m5qvKxgTyqt-yR9O_Ca_-73" value="" style="ellipse;whiteSpace=wrap;html=1;aspect=fixed;fillColor=#e51400;strokeColor=#B20000;fontColor=#ffffff;" vertex="1" parent="1">
                    <mxGeometry x="493.5" y="1420" width="80" height="80" as="geometry"/>
                </mxCell>
                <mxCell id="m5qvKxgTyqt-yR9O_Ca_-74" value="" style="ellipse;whiteSpace=wrap;html=1;aspect=fixed;fillColor=#e51400;strokeColor=#B20000;fontColor=#ffffff;" vertex="1" parent="1">
                    <mxGeometry x="276.5" y="1410" width="80" height="80" as="geometry"/>
                </mxCell>
                <mxCell id="m5qvKxgTyqt-yR9O_Ca_-75" value="" style="ellipse;whiteSpace=wrap;html=1;aspect=fixed;fillColor=#e51400;strokeColor=#B20000;fontColor=#ffffff;" vertex="1" parent="1">
                    <mxGeometry x="498.5" y="1410" width="80" height="80" as="geometry"/>
                </mxCell>
                <mxCell id="m5qvKxgTyqt-yR9O_Ca_-76" value="" style="ellipse;whiteSpace=wrap;html=1;aspect=fixed;fillColor=#e51400;strokeColor=#B20000;fontColor=#ffffff;" vertex="1" parent="1">
                    <mxGeometry x="383.5" y="1410" width="80" height="80" as="geometry"/>
                </mxCell>
                <mxCell id="m5qvKxgTyqt-yR9O_Ca_-77" value="&lt;b&gt;&lt;u&gt;&lt;font style=&quot;font-size: 18px&quot;&gt;Screen 3C&lt;/font&gt;&lt;/u&gt;&lt;/b&gt;" style="text;html=1;strokeColor=none;fillColor=none;align=center;verticalAlign=middle;whiteSpace=wrap;rounded=0;fontColor=#000000;" vertex="1" parent="1">
                    <mxGeometry x="368.5" y="1110" width="110" height="40" as="geometry"/>
                </mxCell>
                <mxCell id="mGnCdX0i4CdFxTyxRNxq-22" value="" style="shape=image;html=1;verticalAlign=top;verticalLabelPosition=bottom;labelBackgroundColor=#ffffff;imageAspect=0;aspect=fixed;image=https://cdn4.iconfinder.com/data/icons/zoo-line-welcome-to-zootopia/512/dolphin-128.png" vertex="1" parent="1">
                    <mxGeometry x="383.5" y="1230" width="80" height="80" as="geometry"/>
                </mxCell>
                <mxCell id="mGnCdX0i4CdFxTyxRNxq-23" value="Choose a name" style="text;html=1;align=center;verticalAlign=middle;whiteSpace=wrap;rounded=0;fontColor=#000000;" vertex="1" parent="1">
                    <mxGeometry x="340" y="1200" width="170" height="20" as="geometry"/>
                </mxCell>
                <mxCell id="mGnCdX0i4CdFxTyxRNxq-24" value="&lt;font style=&quot;font-size: 30px&quot;&gt;&amp;nbsp;A&amp;nbsp; &amp;nbsp; &amp;nbsp; &amp;nbsp; &amp;nbsp;B&amp;nbsp; &amp;nbsp; &amp;nbsp; &amp;nbsp; &amp;nbsp;C&lt;/font&gt;" style="text;html=1;strokeColor=none;fillColor=none;align=center;verticalAlign=middle;whiteSpace=wrap;rounded=0;fontColor=#000000;" vertex="1" parent="1">
                    <mxGeometry x="310" y="1330" width="240" height="40" as="geometry"/>
                </mxCell>
            </root>
        </mxGraphModel>
    </diagram>
</mxfile>